<svg width="58" height="58" viewBox="0 0 58 58" fill="none" xmlns="http://www.w3.org/2000/svg">
<g clip-path="url(#clip0_1_203)">
<path d="M29 58C45.0163 58 58 45.0163 58 29C58 12.9837 45.0163 0 29 0C12.9837 0 0 12.9837 0 29C0 45.0163 12.9837 58 29 58Z" fill="#F9818E"/>
<path d="M36.3326 21.75H21.6688C17.7074 21.75 14.5 24.6935 14.5 28.8333C14.5 32.9759 17.7074 35.9904 21.6688 35.9904H36.3326C40.2955 35.9904 43.5 32.9745 43.5 28.8333C43.5 24.6921 40.2955 21.75 36.3326 21.75ZM25.375 29.5626C25.375 29.7366 25.2184 29.9062 25.0357 29.9062H22.7853V32.1813C22.7853 32.364 22.5852 32.4959 22.4097 32.4959H21.025C20.8539 32.4959 20.7161 32.3713 20.7161 32.2016V29.9062H18.4411C18.2584 29.9062 18.1265 29.7047 18.1265 29.5293V28.1431C18.1265 27.9734 18.2512 27.8342 18.4194 27.8342H20.7161V25.5809C20.7161 25.3997 20.8351 25.2459 21.0105 25.2459H22.4446C22.6186 25.2459 22.7868 25.4026 22.7868 25.5853V27.8342H25.0415C25.2228 27.8342 25.3764 27.9545 25.3764 28.13L25.375 29.5626ZM33.1282 30.1325C32.964 30.1338 32.8012 30.1028 32.6491 30.0412C32.4969 29.9796 32.3584 29.8887 32.2414 29.7736C32.1243 29.6584 32.0312 29.5214 31.9671 29.3702C31.9031 29.2191 31.8694 29.0568 31.8681 28.8927C31.8681 28.2083 32.4336 27.6515 33.1282 27.6515C33.8256 27.6515 34.3896 28.2083 34.3896 28.8927C34.3896 29.5757 33.8256 30.1325 33.1282 30.1325ZM35.8832 32.8381C35.7191 32.8401 35.5564 32.8096 35.4042 32.7485C35.2519 32.6874 35.1133 32.5969 34.9961 32.4822C34.8789 32.3674 34.7855 32.2307 34.7213 32.0798C34.657 31.9289 34.6232 31.7668 34.6217 31.6028C34.6226 31.4384 34.656 31.2758 34.72 31.1244C34.784 30.973 34.8773 30.8357 34.9946 30.7205C35.1118 30.6053 35.2507 30.5144 35.4032 30.453C35.5557 30.3917 35.7188 30.3611 35.8832 30.363C36.5792 30.363 37.1447 30.914 37.1447 31.6028C37.1431 31.7668 37.1093 31.9289 37.045 32.0798C36.9808 32.2307 36.8874 32.3674 36.7702 32.4822C36.653 32.5969 36.5144 32.6874 36.3621 32.7485C36.2099 32.8096 36.0472 32.8401 35.8832 32.8381ZM35.8832 27.4209C35.719 27.4225 35.5562 27.3917 35.4039 27.3303C35.2517 27.2689 35.1131 27.1781 34.9959 27.0631C34.8788 26.9481 34.7854 26.8112 34.7212 26.6601C34.657 26.509 34.6232 26.3468 34.6217 26.1826C34.6217 25.4982 35.1872 24.9415 35.8832 24.9415C36.5792 24.9415 37.1447 25.4982 37.1447 26.1826C37.1431 26.3468 37.1093 26.509 37.0451 26.6601C36.9809 26.8112 36.8875 26.9481 36.7704 27.0631C36.6532 27.1781 36.5146 27.2689 36.3624 27.3303C36.2101 27.3917 36.0473 27.4225 35.8832 27.4209ZM38.6367 30.1325C38.3055 30.1348 37.9868 30.0055 37.7508 29.773C37.5148 29.5406 37.3808 29.2239 37.3781 28.8927C37.3781 28.2083 37.9422 27.6515 38.6367 27.6515C39.3313 27.6515 39.8953 28.2083 39.8953 28.8927C39.8926 29.2239 39.7586 29.5406 39.5226 29.773C39.2866 30.0055 38.9679 30.1348 38.6367 30.1325Z" fill="white"/>
</g>
<defs>
<clipPath id="clip0_1_203">
<rect width="58" height="58" fill="white"/>
</clipPath>
</defs>
</svg>
