<svg width="58" height="58" viewBox="0 0 58 58" fill="none" xmlns="http://www.w3.org/2000/svg">
<path d="M29 58C45.0163 58 58 45.0163 58 29C58 12.9837 45.0163 0 29 0C12.9837 0 0 12.9837 0 29C0 45.0163 12.9837 58 29 58Z" fill="#FFAF7E"/>
<path d="M36.2428 26.1073H30.4457V34.8044H27.5457V26.1073H21.75C21.3655 26.1073 20.9967 26.26 20.7247 26.532C20.4528 26.8039 20.3 27.1727 20.3 27.5573V42.05C20.3 42.4346 20.4528 42.8034 20.7247 43.0753C20.9967 43.3472 21.3655 43.5 21.75 43.5H36.2428C36.6274 43.5 36.9962 43.3472 37.2681 43.0753C37.54 42.8034 37.6928 42.4346 37.6928 42.05V27.5573C37.6928 27.1727 37.54 26.8039 37.2681 26.532C36.9962 26.26 36.6274 26.1073 36.2428 26.1073ZM27.5471 39.1515H24.6471V36.2529H27.5471V39.1529V39.1515ZM30.4471 22.9477C31.4142 22.6057 32.2292 21.9328 32.7482 21.048C33.2671 20.1632 33.4565 19.1234 33.283 18.1124C33.1095 17.1015 32.5842 16.1844 31.7999 15.5232C31.0156 14.8621 30.0229 14.4995 28.9971 14.4995C27.9714 14.4995 26.9786 14.8621 26.1944 15.5232C25.4101 16.1844 24.8848 17.1015 24.7113 18.1124C24.5377 19.1234 24.7272 20.1632 25.2461 21.048C25.7651 21.9328 26.5801 22.6057 27.5471 22.9477V26.1087H30.4471V22.9477Z" fill="white"/>
</svg>
