<svg width="58" height="58" viewBox="0 0 58 58" fill="none" xmlns="http://www.w3.org/2000/svg">
<g clip-path="url(#clip0_1_208)">
<path d="M29 58C45.0163 58 58 45.0163 58 29C58 12.9837 45.0163 0 29 0C12.9837 0 0 12.9837 0 29C0 45.0163 12.9837 58 29 58Z" fill="#483EFF"/>
<path d="M38.6657 18.85H19.3343C18.6996 18.8498 18.071 18.9747 17.4844 19.2175C16.8979 19.4603 16.365 19.8162 15.9161 20.265C15.4671 20.7138 15.111 21.2466 14.8681 21.8331C14.6251 22.4195 14.5 23.0481 14.5 23.6829V34.1127C14.4854 35.1169 14.7736 36.1022 15.3271 36.9402C15.8806 37.7782 16.6737 38.43 17.603 38.8107C19.3981 39.5357 21.4542 39.0746 22.765 37.6507L26.854 33.35H31.146L35.235 37.6507C35.8748 38.347 36.712 38.8312 37.6345 39.0385C38.5571 39.2458 39.5209 39.1664 40.397 38.8107C41.3264 38.43 42.1195 37.7782 42.673 36.9402C43.2265 36.1022 43.5147 35.1169 43.5 34.1127V23.6829C43.5 23.0481 43.375 22.4195 43.132 21.8331C42.8891 21.2466 42.5329 20.7138 42.084 20.265C41.6351 19.8162 41.1022 19.4603 40.5156 19.2175C39.9291 18.9747 39.3005 18.8498 38.6657 18.85ZM25.1329 27.55H23.2V29.4829C23.1904 29.7327 23.0843 29.9691 22.9041 30.1424C22.7239 30.3157 22.4836 30.4126 22.2336 30.4126C21.9836 30.4126 21.7433 30.3157 21.5631 30.1424C21.3829 29.9691 21.2769 29.7327 21.2672 29.4829V27.55H19.3343C19.0778 27.55 18.8318 27.4481 18.6505 27.2667C18.4691 27.0854 18.3672 26.8394 18.3672 26.5829C18.3672 26.3264 18.4691 26.0804 18.6505 25.899C18.8318 25.7176 19.0778 25.6157 19.3343 25.6157H21.2672V23.6829C21.2622 23.5528 21.2834 23.4231 21.3297 23.3014C21.376 23.1798 21.4464 23.0687 21.5366 22.9749C21.6269 22.8811 21.7351 22.8065 21.8549 22.7555C21.9746 22.7045 22.1035 22.6783 22.2336 22.6783C22.3638 22.6783 22.4926 22.7045 22.6124 22.7555C22.7321 22.8065 22.8404 22.8811 22.9306 22.9749C23.0208 23.0687 23.0912 23.1798 23.1375 23.3014C23.1838 23.4231 23.2051 23.5528 23.2 23.6829V25.6157H25.1329C25.3894 25.6157 25.6354 25.7176 25.8168 25.899C25.9981 26.0804 26.1 26.3264 26.1 26.5829C26.1 26.8394 25.9981 27.0854 25.8168 27.2667C25.6354 27.4481 25.3894 27.55 25.1329 27.55ZM35.7657 30.45C35.2517 30.46 34.7408 30.3673 34.263 30.1775C33.7852 29.9876 33.35 29.7044 32.983 29.3444C32.6159 28.9844 32.3243 28.5548 32.1253 28.0808C31.9262 27.6067 31.8237 27.0977 31.8237 26.5836C31.8237 26.0694 31.9262 25.5605 32.1253 25.0864C32.3243 24.6124 32.6159 24.1828 32.983 23.8227C33.35 23.4627 33.7852 23.1795 34.263 22.9897C34.7408 22.7999 35.2517 22.7072 35.7657 22.7172C36.7782 22.7368 37.7426 23.1527 38.4517 23.8757C39.1608 24.5987 39.558 25.5709 39.558 26.5836C39.558 27.5962 39.1608 28.5685 38.4517 29.2915C37.7426 30.0144 36.7782 30.4304 35.7657 30.45ZM37.7 26.5829C37.7 27.0957 37.4963 27.5875 37.1337 27.9501C36.7711 28.3127 36.2793 28.5164 35.7665 28.5164C35.2537 28.5164 34.7618 28.3127 34.3992 27.9501C34.0366 27.5875 33.8329 27.0957 33.8329 26.5829C33.8329 26.07 34.0366 25.5782 34.3992 25.2156C34.7618 24.853 35.2537 24.6493 35.7665 24.6493C36.2793 24.6493 36.7711 24.853 37.1337 25.2156C37.4963 25.5782 37.7 26.07 37.7 26.5829Z" fill="white"/>
</g>
<defs>
<clipPath id="clip0_1_208">
<rect width="58" height="58" fill="white"/>
</clipPath>
</defs>
</svg>
