<svg width="136" height="136" viewBox="0 0 136 136" fill="none" xmlns="http://www.w3.org/2000/svg">
<g clip-path="url(#clip0_2_731)">
<path d="M68 136C105.555 136 136 105.555 136 68C136 30.4446 105.555 0 68 0C30.4446 0 0 30.4446 0 68C0 105.555 30.4446 136 68 136Z" fill="#F9818E"/>
<path d="M82.3888 134.584C83.6944 134.329 84.9898 134.038 86.2784 133.708C88.4629 133.099 90.6155 132.381 92.7282 131.556C94.8455 130.737 96.9203 129.812 98.9451 128.785C107.062 124.65 114.267 118.928 120.132 111.959C126.003 104.991 130.416 96.9166 133.11 88.213C133.685 86.3141 134.176 84.3897 134.584 82.4483L94.1358 41.9866C90.7196 38.5531 86.6579 35.8295 82.1847 33.9724C77.7114 32.1153 72.9149 31.1616 68.0714 31.1661C63.225 31.1616 58.4254 32.1153 53.9488 33.9723C49.4722 35.8292 45.4069 38.5529 41.9866 41.9866C27.5604 56.4179 27.5604 79.7351 41.9866 94.1664L82.3888 134.584Z" fill="#E96170"/>
<path d="M68.0051 31.1661C72.8409 31.1615 77.6299 32.1131 82.0966 33.966C86.5632 35.8189 90.6195 38.5366 94.0321 41.9628C108.433 56.3635 108.433 79.6314 94.0321 94.0338C79.6331 108.433 56.3669 108.433 41.9662 94.0338C27.5672 79.6314 27.5672 56.3635 41.9662 41.9628C45.3812 38.5365 49.4396 35.819 53.9083 33.9664C58.3769 32.1139 63.1677 31.1611 68.0051 31.1661ZM84.7756 56.6661C84.2384 56.7137 83.7182 56.9211 83.2932 57.2509L62.6076 72.7719L53.0179 63.1805C50.9371 61.013 46.8469 65.1049 49.0127 67.1857L60.3398 78.5128C61.2918 79.4648 62.9561 79.5838 64.0339 78.778L86.6881 61.7865C88.5955 60.3993 87.4191 56.6984 85.0629 56.6644C84.9667 56.6595 84.8702 56.6595 84.7739 56.6644L84.7756 56.6661Z" fill="white"/>
</g>
<defs>
<clipPath id="clip0_2_731">
<rect width="136" height="136" fill="white"/>
</clipPath>
</defs>
</svg>
